<svg width="13" height="14" viewBox="0 0 13 14" xmlns="http://www.w3.org/2000/svg"><path d="M6.147 7.623c-1.592 0-3.198-2.05-3.198-4.154C2.95 1.364 4.381 0 6.147 0s3.198 1.364 3.198 3.469c0 2.105-1.656 4.154-3.198 4.154zm5.72 3.113c.195.384.599 1.505.348 1.987-.318.61-11.818.61-12.135 0-.251-.482.153-1.603.347-1.987.386-.766.667-1.152 1.192-1.698.454-.471 1.808-1.135 2.682-.843.697.152.73.554 1.846.554 1.117 0 1.15-.402 1.847-.554.873-.292 2.227.372 2.68.843.526.546.807.932 1.194 1.698z" fill="#A1A1A5" fill-rule="evenodd"/></svg>