<svg xmlns="http://www.w3.org/2000/svg" width="18.087" height="8.32" viewBox="0 0 18.087 8.32"><path data-name="Combined Shape" d="M13.023 8.32a.542.542 0 01-.543-.542V.543A.543.543 0 0113.023 0h.723a.543.543 0 01.543.543v7.235a.542.542 0 01-.543.542zm-8.682 0a.542.542 0 01-.541-.542V.543A.543.543 0 014.341 0h.724a.543.543 0 01.543.543v7.235a.542.542 0 01-.543.542zm10.671-1.447a.543.543 0 01-.543-.543V1.809a.543.543 0 01.543-.543h.724a.543.543 0 01.543.543v4.522a.543.543 0 01-.543.543zm-12.66 0a.543.543 0 01-.543-.543V1.809a.543.543 0 01.543-.543h.723a.543.543 0 01.543.543v4.522a.543.543 0 01-.543.543zm14.107-1.809V3.255h1.085a.543.543 0 01.543.543v.724a.543.543 0 01-.543.543zm-10.671 0V3.255H12.3v1.809zm-5.245 0A.543.543 0 010 4.522V3.8a.543.543 0 01.543-.543h1.085v1.807z" fill="#666b70" opacity=".9"/></svg>