<svg width="155" height="31" viewBox="0 0 155 31" fill="none" xmlns="http://www.w3.org/2000/svg">
<path d="M46.8267 11.719L42.3965 16.1492L46.8267 20.5794C47.0934 20.8256 47.2267 21.14 47.2267 21.5229C47.2267 21.8921 47.0934 22.21 46.8267 22.4766C46.5669 22.7364 46.2524 22.8663 45.8833 22.8663C45.4936 22.8663 45.1756 22.733 44.9295 22.4664L40.4993 18.0362L36.0691 22.4664C35.823 22.733 35.5085 22.8663 35.1256 22.8663C34.7565 22.8663 34.4386 22.7364 34.1719 22.4766C33.9121 22.21 33.7822 21.8921 33.7822 21.5229V10.7653C33.7822 10.3961 33.9121 10.0816 34.1719 9.82182C34.4386 9.55519 34.7565 9.42188 35.1256 9.42188C35.4948 9.42188 35.8093 9.55519 36.0691 9.82182C36.3357 10.0816 36.4691 10.3961 36.4691 10.7653V18.2925L44.9295 9.82182C45.1962 9.55519 45.5141 9.42188 45.8833 9.42188C46.2524 9.42188 46.5669 9.55519 46.8267 9.82182C47.0934 10.0816 47.2267 10.3961 47.2267 10.7653C47.2267 11.1345 47.0934 11.4524 46.8267 11.719Z" fill="#2A3354"/>
<path d="M60.507 15.4724V21.5229C60.507 21.8921 60.3737 22.21 60.1071 22.4766C59.8405 22.7364 59.5225 22.8663 59.1534 22.8663C58.7842 22.8663 58.4663 22.7364 58.1996 22.4766C57.9398 22.21 57.8099 21.8921 57.8099 21.5229V18.8361H51.0928V21.5229C51.0928 21.8921 50.9595 22.21 50.6929 22.4766C50.4331 22.7364 50.1186 22.8663 49.7494 22.8663C49.3802 22.8663 49.0623 22.7364 48.7957 22.4766C48.5359 22.21 48.406 21.8921 48.406 21.5229V15.4724C48.406 14.3785 48.6761 13.3667 49.2162 12.4369C49.7563 11.5071 50.4912 10.7721 51.421 10.232C52.3508 9.69193 53.3626 9.42188 54.4565 9.42188C55.5504 9.42188 56.5622 9.69193 57.492 10.232C58.4218 10.7721 59.1568 11.5071 59.6969 12.4369C60.237 13.3667 60.507 14.3785 60.507 15.4724ZM51.0928 15.4724V16.1492H57.8099V15.4724C57.8099 14.5494 57.4818 13.7598 56.8255 13.1035C56.1691 12.4403 55.3795 12.1087 54.4565 12.1087C53.5336 12.1087 52.7405 12.4403 52.0773 13.1035C51.421 13.7598 51.0928 14.5494 51.0928 15.4724Z" fill="#2A3354"/>
<path d="M64.8757 17.4926V21.5229C64.8757 21.8921 64.7424 22.21 64.4758 22.4766C64.216 22.7364 63.9015 22.8663 63.5323 22.8663C63.1631 22.8663 62.8452 22.7364 62.5786 22.4766C62.3188 22.21 62.1889 21.8921 62.1889 21.5229V10.7653C62.1889 10.3961 62.3188 10.0816 62.5786 9.82182C62.8452 9.55519 63.1631 9.42188 63.5323 9.42188C63.9015 9.42188 64.216 9.55519 64.4758 9.82182C64.7424 10.0816 64.8757 10.3961 64.8757 10.7653V14.8058H71.5928V10.7653C71.5928 10.3961 71.7227 10.0816 71.9825 9.82182C72.2491 9.55519 72.567 9.42188 72.9362 9.42188C73.3054 9.42188 73.6233 9.55519 73.8899 9.82182C74.1566 10.0816 74.2899 10.3961 74.2899 10.7653V21.5229C74.2899 21.8921 74.1566 22.21 73.8899 22.4766C73.6233 22.7364 73.3054 22.8663 72.9362 22.8663C72.567 22.8663 72.2491 22.7364 71.9825 22.4766C71.7227 22.21 71.5928 21.8921 71.5928 21.5229V17.4926H64.8757Z" fill="#2A3354"/>
<path d="M87.7343 10.7653V16.8158C87.7343 17.9097 87.4643 18.9215 86.9242 19.8513C86.3841 20.7811 85.6491 21.5161 84.7193 22.0562C83.7895 22.5963 82.7777 22.8663 81.6838 22.8663C80.5899 22.8663 79.5781 22.5963 78.6483 22.0562C77.7185 21.5161 76.9836 20.7811 76.4435 19.8513C75.9034 18.9215 75.6333 17.9097 75.6333 16.8158V10.7653C75.6333 10.3961 75.7632 10.0816 76.023 9.82182C76.2896 9.55519 76.6076 9.42188 76.9767 9.42188C77.3459 9.42188 77.6604 9.55519 77.9202 9.82182C78.1868 10.0816 78.3202 10.3961 78.3202 10.7653V16.8158C78.3202 17.7388 78.6483 18.5318 79.3046 19.195C79.9678 19.8513 80.7609 20.1795 81.6838 20.1795C82.6068 20.1795 83.3964 19.8513 84.0528 19.195C84.7159 18.5318 85.0475 17.7388 85.0475 16.8158V10.7653C85.0475 10.3961 85.1774 10.0816 85.4372 9.82182C85.7038 9.55519 86.0217 9.42188 86.3909 9.42188C86.7601 9.42188 87.0746 9.55519 87.3344 9.82182C87.601 10.0816 87.7343 10.3961 87.7343 10.7653Z" fill="#2A3354"/>
<path d="M99.8251 18.2925V10.7653C99.8251 10.3961 99.9584 10.0816 100.225 9.82182C100.492 9.55519 100.81 9.42188 101.179 9.42188C101.548 9.42188 101.862 9.55519 102.122 9.82182C102.389 10.0816 102.522 10.3961 102.522 10.7653V21.5229C102.522 21.8921 102.389 22.21 102.122 22.4766C101.862 22.7364 101.548 22.8663 101.179 22.8663C100.789 22.8663 100.471 22.733 100.225 22.4664L91.7646 14.0059V21.5229C91.7646 21.8921 91.6313 22.21 91.3646 22.4766C91.1049 22.7364 90.7904 22.8663 90.4212 22.8663C90.052 22.8663 89.7341 22.7364 89.4675 22.4766C89.2077 22.21 89.0778 21.8921 89.0778 21.5229V10.7653C89.0778 10.3961 89.2077 10.0816 89.4675 9.82182C89.7341 9.55519 90.052 9.42188 90.4212 9.42188C90.7835 9.42188 91.098 9.55519 91.3646 9.82182L99.8251 18.2925Z" fill="#2A3354"/>
<path d="M116.295 15.4724V21.5229C116.295 21.8921 116.161 22.21 115.895 22.4766C115.628 22.7364 115.31 22.8663 114.941 22.8663C114.572 22.8663 114.254 22.7364 113.987 22.4766C113.728 22.21 113.598 21.8921 113.598 21.5229V18.8361H106.881V21.5229C106.881 21.8921 106.747 22.21 106.481 22.4766C106.221 22.7364 105.906 22.8663 105.537 22.8663C105.168 22.8663 104.85 22.7364 104.583 22.4766C104.324 22.21 104.194 21.8921 104.194 21.5229V15.4724C104.194 14.3785 104.464 13.3667 105.004 12.4369C105.544 11.5071 106.279 10.7721 107.209 10.232C108.139 9.69193 109.15 9.42188 110.244 9.42188C111.338 9.42188 112.35 9.69193 113.28 10.232C114.21 10.7721 114.945 11.5071 115.485 12.4369C116.025 13.3667 116.295 14.3785 116.295 15.4724ZM106.881 15.4724V16.1492H113.598V15.4724C113.598 14.5494 113.27 13.7598 112.613 13.1035C111.957 12.4403 111.167 12.1087 110.244 12.1087C109.321 12.1087 108.528 12.4403 107.865 13.1035C107.209 13.7598 106.881 14.5494 106.881 15.4724Z" fill="#2A3354"/>
<path d="M118.982 20.1795H125.709C126.078 20.1795 126.393 20.0496 126.652 19.7898C126.919 19.5232 127.052 19.2052 127.052 18.8361C127.052 18.4669 126.919 18.1524 126.652 17.8926C126.393 17.626 126.078 17.4926 125.709 17.4926H121.668C120.554 17.4926 119.604 17.0995 118.818 16.3133C118.031 15.5202 117.638 14.5665 117.638 13.4521C117.638 12.3377 118.031 11.3874 118.818 10.6012C119.604 9.81499 120.554 9.42188 121.668 9.42188H127.719C128.088 9.42188 128.403 9.55519 128.662 9.82182C128.929 10.0816 129.062 10.3961 129.062 10.7653C129.062 11.1345 128.929 11.4524 128.662 11.719C128.403 11.9788 128.088 12.1087 127.719 12.1087H121.668C121.299 12.1087 120.981 12.242 120.715 12.5087C120.455 12.7685 120.325 13.0829 120.325 13.4521C120.325 13.8213 120.455 14.1392 120.715 14.4059C120.981 14.6725 121.299 14.8058 121.668 14.8058H125.709C126.823 14.8058 127.774 15.1989 128.56 15.9851C129.346 16.7714 129.739 17.7217 129.739 18.8361C129.739 19.9505 129.346 20.9008 128.56 21.687C127.774 22.4732 126.823 22.8663 125.709 22.8663H118.982C118.612 22.8663 118.295 22.7364 118.028 22.4766C117.768 22.21 117.638 21.8921 117.638 21.5229C117.638 21.1537 117.768 20.8392 118.028 20.5794C118.295 20.3128 118.612 20.1795 118.982 20.1795Z" fill="#2A3354"/>
<path d="M130.252 21.3588C130.252 20.9349 130.399 20.576 130.693 20.282C130.987 19.9881 131.342 19.8411 131.76 19.8411C132.183 19.8411 132.542 19.9915 132.836 20.2923C133.13 20.5863 133.277 20.9418 133.277 21.3588C133.277 21.7759 133.13 22.1314 132.836 22.4253C132.542 22.7193 132.183 22.8663 131.76 22.8663C131.336 22.8663 130.977 22.7193 130.683 22.4253C130.396 22.1314 130.252 21.7759 130.252 21.3588Z" fill="#2A3354"/>
<path d="M136.467 20.1795V12.1087H135.113C134.744 12.1087 134.426 11.9788 134.159 11.719C133.899 11.4524 133.77 11.1345 133.77 10.7653C133.77 10.3961 133.899 10.0816 134.159 9.82182C134.426 9.55519 134.744 9.42188 135.113 9.42188H140.497C140.866 9.42188 141.181 9.55519 141.44 9.82182C141.707 10.0816 141.84 10.3961 141.84 10.7653C141.84 11.1345 141.707 11.4524 141.44 11.719C141.181 11.9788 140.866 12.1087 140.497 12.1087H139.153V20.1795H140.497C140.866 20.1795 141.181 20.3128 141.44 20.5794C141.707 20.8392 141.84 21.1537 141.84 21.5229C141.84 21.8921 141.707 22.21 141.44 22.4766C141.181 22.7364 140.866 22.8663 140.497 22.8663H135.113C134.744 22.8663 134.426 22.7364 134.159 22.4766C133.899 22.21 133.77 21.8921 133.77 21.5229C133.77 21.1537 133.899 20.8392 134.159 20.5794C134.426 20.3128 134.744 20.1795 135.113 20.1795H136.467Z" fill="#2A3354"/>
<path d="M141.348 16.1492C141.348 14.9323 141.645 13.8076 142.24 12.7753C142.842 11.7429 143.659 10.926 144.691 10.3243C145.724 9.72269 146.848 9.42188 148.065 9.42188C149.282 9.42188 150.407 9.72269 151.439 10.3243C152.471 10.926 153.285 11.7429 153.88 12.7753C154.481 13.8076 154.782 14.9323 154.782 16.1492C154.782 17.0585 154.604 17.9302 154.249 18.7643C153.893 19.5915 153.415 20.306 152.813 20.9076C152.218 21.5024 151.504 21.9775 150.67 22.3331C149.843 22.6886 148.974 22.8663 148.065 22.8663C147.156 22.8663 146.284 22.6886 145.45 22.3331C144.623 21.9775 143.908 21.5024 143.307 20.9076C142.712 20.306 142.237 19.5915 141.881 18.7643C141.526 17.9302 141.348 17.0585 141.348 16.1492ZM145.214 13.2983C144.428 14.0845 144.035 15.0348 144.035 16.1492C144.035 17.2636 144.428 18.2139 145.214 19.0001C146 19.7864 146.951 20.1795 148.065 20.1795C149.18 20.1795 150.13 19.7864 150.916 19.0001C151.702 18.2139 152.095 17.2636 152.095 16.1492C152.095 15.0348 151.702 14.0845 150.916 13.2983C150.13 12.5052 149.18 12.1087 148.065 12.1087C146.951 12.1087 146 12.5052 145.214 13.2983Z" fill="#2A3354"/>
<path d="M16.7646 31L0.985596 15.501L16.7664 0H26L26.0417 0.0195312C27.3416 0.180664 28.3477 1.28906 28.3477 2.63281C28.3477 3.3457 28.0635 3.99902 27.6033 4.47266L16.6514 15.5L27.5698 26.499C28.05 26.9756 28.3477 27.6367 28.3477 28.3672C28.3477 29.6201 27.3306 31 26 31H16.7646Z" fill="#3E97FF"/>
<path d="M0 29V17.3359L13.9106 31H2C0.895508 31 0 30.1045 0 29Z" fill="#3E97FF"/>
<path d="M13.9121 0H2C0.895508 0 0 0.895508 0 2V13.665L13.9121 0Z" fill="#3E97FF"/>
</svg>
